<svg width="23" height="15" viewBox="0 0 23 15" fill="none" xmlns="http://www.w3.org/2000/svg">
<path d="M1.25 15H21.25C21.9375 15 22.5 14.4375 22.5 13.75C22.5 13.0625 21.9375 12.5 21.25 12.5H1.25C0.5625 12.5 0 13.0625 0 13.75C0 14.4375 0.5625 15 1.25 15ZM1.25 8.75H21.25C21.9375 8.75 22.5 8.1875 22.5 7.5C22.5 6.8125 21.9375 6.25 21.25 6.25H1.25C0.5625 6.25 0 6.8125 0 7.5C0 8.1875 0.5625 8.75 1.25 8.75ZM0 1.25C0 1.9375 0.5625 2.5 1.25 2.5H21.25C21.9375 2.5 22.5 1.9375 22.5 1.25C22.5 0.5625 21.9375 0 21.25 0H1.25C0.5625 0 0 0.5625 0 1.25Z" fill="white"/>
</svg>
