<svg width="64" height="64" viewBox="0 0 64 64" fill="none" xmlns="http://www.w3.org/2000/svg">
<path d="M6.85714 0C3.07143 0 0 3.07143 0 6.85714V57.1429C0 60.9286 3.07143 64 6.85714 64H57.1429C60.9286 64 64 60.9286 64 57.1429V6.85714C64 3.07143 60.9286 0 57.1429 0H6.85714ZM20.9829 19.0334C23.788 19.0334 26.2803 20.0033 28.1156 21.4579C29.8127 22.8081 30.6076 24.1589 31.301 25.3711L26.4549 27.7924C26.1081 26.9974 25.691 26.1657 24.6197 25.2664C23.4414 24.3304 22.2657 24.0544 21.2591 24.0544C17.3126 24.0544 15.2349 27.7249 15.2349 31.8097C15.2349 37.1773 17.9721 39.8411 21.2591 39.8411C24.4449 39.8411 25.7274 37.6254 26.5563 36.2076L31.3714 38.6657C30.4693 40.0837 29.6037 41.4707 27.6643 42.8184C26.6269 43.5456 24.239 44.9666 20.8449 44.9666C14.3694 44.9666 9.14286 40.2586 9.14286 31.9814C9.14286 24.7477 14.0593 19.0334 20.9829 19.0334ZM31.7661 19.7946H38.2754L43.33 37.1771L48.3479 19.7946H54.8571L46.3744 44.2391H40.1443L31.7661 19.7947V19.7946Z" fill="black"/>
</svg>
