<svg width="40" height="36" viewBox="0 0 40 36" fill="none" xmlns="http://www.w3.org/2000/svg">
<path d="M32.25 35.5C30.325 35.5 28.6771 34.8146 27.3063 33.4438C25.9354 32.0729 25.25 30.425 25.25 28.5V20.625C25.25 19.4 25.6729 18.3646 26.5188 17.5188C27.3646 16.6729 28.4 16.25 29.625 16.25C30.85 16.25 31.8854 16.6729 32.7313 17.5188C33.5771 18.3646 34 19.4 34 20.625V28.5H30.5V20.625C30.5 20.3917 30.4125 20.1875 30.2375 20.0125C30.0625 19.8375 29.8583 19.75 29.625 19.75C29.3917 19.75 29.1875 19.8375 29.0125 20.0125C28.8375 20.1875 28.75 20.3917 28.75 20.625V28.5C28.75 29.4625 29.093 30.2868 29.779 30.9728C30.465 31.6588 31.2887 32.0012 32.25 32C33.2125 32 34.0368 31.657 34.7228 30.971C35.4088 30.285 35.7512 29.4613 35.75 28.5V21.5H39.25V28.5C39.25 30.425 38.5646 32.0729 37.1938 33.4438C35.8229 34.8146 34.175 35.5 32.25 35.5ZM4.25 28.5C3.2875 28.5 2.46325 28.157 1.77725 27.471C1.09125 26.785 0.748836 25.9613 0.750003 25V4C0.750003 3.0375 1.093 2.21325 1.779 1.52725C2.465 0.841253 3.28867 0.498836 4.25 0.500003H32.25C33.2125 0.500003 34.0368 0.843003 34.7228 1.529C35.4088 2.215 35.7512 3.03867 35.75 4V14.5H29.625C27.9333 14.5 26.4896 15.0979 25.2938 16.2938C24.0979 17.4896 23.5 18.9333 23.5 20.625V28.5H4.25ZM18.25 16.25L32.25 7.5V4L18.25 12.75L4.25 4V7.5L18.25 16.25Z" fill="black"/>
</svg>
