<svg width="93" height="28" viewBox="0 0 93 28" fill="none" xmlns="http://www.w3.org/2000/svg">
<path d="M0.605272 21.9707V11.6206H13.5278V11.0153H0.605272V1.57305H14.3449V0.967773H0V22.576H14.466V21.9707H0.605272ZM26.1175 7.02049L20.7608 14.0719L15.5252 7.02049H14.7384L20.3977 14.5259L14.1936 22.576H14.9199L20.7608 14.9798L26.632 22.576H27.3885L21.1542 14.5259L26.8438 7.02049H26.1175ZM29.2044 27.9024V18.218H29.2649C29.6281 19.6303 30.3443 20.7652 31.4136 21.6227C32.4829 22.4801 33.8448 22.9089 35.4992 22.9089C36.5685 22.9089 37.5168 22.692 38.344 22.2582C39.1712 21.8244 39.8622 21.2343 40.417 20.4878C40.9719 19.7413 41.3955 18.8737 41.6881 17.8851C41.9806 16.8965 42.1269 15.8575 42.1269 14.768C42.1269 13.5978 41.9756 12.5184 41.673 11.5298C41.3703 10.5411 40.9315 9.68369 40.3565 8.95736C39.7815 8.23103 39.0854 7.66612 38.2683 7.2626C37.4512 6.85908 36.5282 6.65733 35.4992 6.65733C34.7123 6.65733 33.981 6.77334 33.3051 7.00536C32.6292 7.23738 32.029 7.56523 31.5044 7.98893C30.9798 8.41262 30.5259 8.91196 30.1425 9.48697C29.7592 10.062 29.4666 10.6925 29.2649 11.3784H29.2044V7.02049H28.5991V27.9024H29.2044ZM35.4992 22.3339C33.6027 22.3339 32.0794 21.6832 30.9294 20.3819C29.7794 19.0805 29.2044 17.2092 29.2044 14.768C29.2044 13.7592 29.3456 12.8008 29.6281 11.8929C29.9105 10.985 30.3191 10.1881 30.8537 9.5021C31.3884 8.81613 32.0491 8.27139 32.836 7.86787C33.6228 7.46435 34.5106 7.2626 35.4992 7.2626C36.508 7.2626 37.3907 7.46435 38.1473 7.86787C38.9038 8.27139 39.5293 8.82117 40.0236 9.51724C40.5179 10.2133 40.8911 11.0102 41.1433 11.9081C41.3955 12.8059 41.5216 13.7592 41.5216 14.768C41.5216 15.6759 41.4056 16.5787 41.1736 17.4766C40.9416 18.3744 40.5835 19.1814 40.0993 19.8976C39.615 20.6139 38.9946 21.199 38.238 21.6529C37.4814 22.1069 36.5685 22.3339 35.4992 22.3339ZM45.4559 22.576V13.7693C45.4559 12.9219 45.577 12.0947 45.8191 11.2877C46.0612 10.4806 46.4344 9.76944 46.9388 9.15407C47.4432 8.53871 48.0838 8.0545 48.8606 7.70142C49.6373 7.34834 50.5604 7.20207 51.6297 7.2626V6.65733C50.7016 6.63715 49.8895 6.73803 49.1935 6.95996C48.4974 7.1819 47.8972 7.48453 47.3928 7.86787C46.8884 8.25121 46.4849 8.70012 46.1822 9.2146C45.8796 9.72908 45.6577 10.2789 45.5164 10.864H45.4559V7.02049H44.8506V22.576H45.4559ZM52.3863 14.9193H65.3996C65.44 13.85 65.334 12.821 65.0818 11.8324C64.8296 10.8438 64.4261 9.96615 63.8713 9.19947C63.3165 8.43279 62.6002 7.81743 61.7226 7.35339C60.8449 6.88935 59.8009 6.65733 58.5903 6.65733C57.7227 6.65733 56.8754 6.83891 56.0482 7.20207C55.221 7.56524 54.4946 8.09484 53.8692 8.79091C53.2437 9.48698 52.7393 10.3394 52.356 11.3482C51.9727 12.357 51.781 13.507 51.781 14.7982C51.781 15.9483 51.9121 17.0226 52.1744 18.0213C52.4367 19.02 52.8402 19.8876 53.385 20.624C53.9297 21.3604 54.6308 21.9303 55.4883 22.3339C56.3458 22.7374 57.3798 22.929 58.5903 22.9089C60.3658 22.9089 61.8588 22.4095 63.0693 21.4108C64.2799 20.4121 64.9961 19.0049 65.218 17.1891H64.6128C64.3505 18.904 63.6796 20.1902 62.6002 21.0477C61.5208 21.9051 60.164 22.3339 58.5298 22.3339C57.4201 22.3339 56.4819 22.1422 55.7153 21.7589C54.9486 21.3755 54.3231 20.851 53.8389 20.1852C53.3547 19.5193 52.9966 18.7375 52.7646 17.8397C52.5325 16.9419 52.4064 15.9684 52.3863 14.9193ZM64.7943 14.314H52.3863C52.4468 13.2245 52.6486 12.246 52.9915 11.3784C53.3345 10.5109 53.7834 9.76944 54.3383 9.15407C54.8931 8.53871 55.5387 8.06963 56.2751 7.74682C57.0116 7.424 57.8034 7.2626 58.6508 7.2626C59.6596 7.2626 60.5473 7.44922 61.314 7.82248C62.0807 8.19573 62.7213 8.70516 63.2358 9.35079C63.7502 9.99641 64.1386 10.748 64.4009 11.6054C64.6632 12.4629 64.7943 13.3658 64.7943 14.314ZM77.959 11.6206H78.5643C78.5643 9.88543 78.0599 8.62446 77.0511 7.83761C76.0423 7.05075 74.6704 6.65733 72.9352 6.65733C71.9668 6.65733 71.1497 6.77838 70.4839 7.02049C69.8181 7.2626 69.2733 7.57532 68.8497 7.95866C68.426 8.342 68.1233 8.76569 67.9418 9.22973C67.7602 9.69378 67.6694 10.1376 67.6694 10.5613C67.6694 11.4087 67.8207 12.0846 68.1233 12.589C68.426 13.0934 68.9001 13.4868 69.5457 13.7693C69.9896 13.971 70.494 14.1526 71.0589 14.314C71.6238 14.4754 72.2795 14.6469 73.026 14.8285C73.6918 14.9899 74.3475 15.1513 74.9932 15.3127C75.6388 15.4741 76.2088 15.691 76.7031 15.9634C77.1974 16.2358 77.6009 16.5838 77.9136 17.0075C78.2263 17.4312 78.3827 17.986 78.3827 18.672C78.3827 19.3378 78.2263 19.9027 77.9136 20.3667C77.6009 20.8308 77.2024 21.2091 76.7182 21.5016C76.234 21.7942 75.6943 22.006 75.0991 22.1372C74.5039 22.2683 73.9239 22.3339 73.3589 22.3339C71.5229 22.3339 70.1157 21.9253 69.1372 21.1082C68.1586 20.2911 67.6694 19.0049 67.6694 17.2496H67.0641C67.0641 19.2066 67.5937 20.6391 68.6529 21.547C69.7122 22.4549 71.2808 22.9089 73.3589 22.9089C74.0247 22.9089 74.6956 22.8332 75.3715 22.6819C76.0474 22.5306 76.6526 22.2834 77.1873 21.9404C77.7219 21.5975 78.1557 21.1536 78.4886 20.6088C78.8215 20.0641 78.988 19.3983 78.988 18.6114C78.988 17.8649 78.8417 17.2597 78.5491 16.7956C78.2566 16.3316 77.8733 15.9483 77.3991 15.6456C76.925 15.343 76.3903 15.1059 75.7951 14.9344C75.2 14.7629 74.5997 14.5965 73.9945 14.4351C73.1471 14.2131 72.4056 14.0215 71.7701 13.8601C71.1346 13.6987 70.5444 13.507 69.9997 13.2851C69.4751 13.0631 69.0565 12.7454 68.7437 12.3318C68.431 11.9181 68.2747 11.328 68.2747 10.5613C68.2747 10.4201 68.315 10.1679 68.3957 9.80474C68.4764 9.44158 68.6681 9.07337 68.9707 8.70012C69.2733 8.32687 69.7374 7.99397 70.3628 7.70142C70.9883 7.40887 71.8457 7.2626 72.9352 7.2626C73.6817 7.2626 74.3627 7.3433 74.978 7.50471C75.5934 7.66611 76.123 7.92335 76.5669 8.27643C77.0107 8.62951 77.3537 9.07841 77.5958 9.62316C77.8379 10.1679 77.959 10.8337 77.959 11.6206ZM91.971 11.6206H92.5763C92.5763 9.88543 92.0719 8.62446 91.0631 7.83761C90.0543 7.05075 88.6824 6.65733 86.9473 6.65733C85.9788 6.65733 85.1617 6.77838 84.4959 7.02049C83.8301 7.2626 83.2854 7.57532 82.8617 7.95866C82.438 8.342 82.1354 8.76569 81.9538 9.22973C81.7722 9.69378 81.6814 10.1376 81.6814 10.5613C81.6814 11.4087 81.8327 12.0846 82.1354 12.589C82.438 13.0934 82.9121 13.4868 83.5578 13.7693C84.0016 13.971 84.506 14.1526 85.0709 14.314C85.6359 14.4754 86.2916 14.6469 87.0381 14.8285C87.7039 14.9899 88.3596 15.1513 89.0052 15.3127C89.6508 15.4741 90.2208 15.691 90.7151 15.9634C91.2094 16.2358 91.6129 16.5838 91.9256 17.0075C92.2384 17.4312 92.3947 17.986 92.3947 18.672C92.3947 19.3378 92.2384 19.9027 91.9256 20.3667C91.6129 20.8308 91.2144 21.2091 90.7302 21.5016C90.246 21.7942 89.7063 22.006 89.1111 22.1372C88.5159 22.2683 87.9359 22.3339 87.371 22.3339C85.535 22.3339 84.1277 21.9253 83.1492 21.1082C82.1707 20.2911 81.6814 19.0049 81.6814 17.2496H81.0761C81.0761 19.2066 81.6058 20.6391 82.665 21.547C83.7242 22.4549 85.2929 22.9089 87.371 22.9089C88.0368 22.9089 88.7076 22.8332 89.3835 22.6819C90.0594 22.5306 90.6647 22.2834 91.1993 21.9404C91.734 21.5975 92.1677 21.1536 92.5006 20.6088C92.8336 20.0641 93 19.3983 93 18.6114C93 17.8649 92.8537 17.2597 92.5612 16.7956C92.2686 16.3316 91.8853 15.9483 91.4112 15.6456C90.937 15.343 90.4024 15.1059 89.8072 14.9344C89.212 14.7629 88.6118 14.5965 88.0065 14.4351C87.1591 14.2131 86.4177 14.0215 85.7821 13.8601C85.1466 13.6987 84.5565 13.507 84.0117 13.2851C83.4871 13.0631 83.0685 12.7454 82.7558 12.3318C82.443 11.9181 82.2867 11.328 82.2867 10.5613C82.2867 10.4201 82.327 10.1679 82.4077 9.80474C82.4884 9.44158 82.6801 9.07337 82.9828 8.70012C83.2854 8.32687 83.7494 7.99397 84.3749 7.70142C85.0003 7.40887 85.8578 7.2626 86.9473 7.2626C87.6938 7.2626 88.3747 7.3433 88.9901 7.50471C89.6054 7.66611 90.135 7.92335 90.5789 8.27643C91.0228 8.62951 91.3658 9.07841 91.6079 9.62316C91.85 10.1679 91.971 10.8337 91.971 11.6206Z" fill="white"/>
</svg>
