<svg width="38" height="37" viewBox="0 0 38 37" fill="none" xmlns="http://www.w3.org/2000/svg">
<path d="M19.0001 0.666626C16.5925 0.666626 14.2085 1.14083 11.9842 2.06217C9.75992 2.9835 7.73886 4.33393 6.03646 6.03633C2.59829 9.4745 0.666748 14.1377 0.666748 19C0.666748 27.1033 5.92841 33.9783 13.2067 36.4166C14.1234 36.5633 14.4167 35.995 14.4167 35.5V32.4016C9.33842 33.5016 8.25675 29.945 8.25675 29.945C7.41341 27.8183 6.22175 27.25 6.22175 27.25C4.55342 26.1133 6.35008 26.15 6.35008 26.15C8.18341 26.2783 9.15508 28.0383 9.15508 28.0383C10.7501 30.825 13.4451 30 14.4901 29.56C14.6551 28.3683 15.1317 27.5616 15.6451 27.1033C11.5751 26.645 7.30341 25.0683 7.30341 18.0833C7.30341 16.0483 8.00008 14.4166 9.19175 13.115C9.00842 12.6566 8.36675 10.75 9.37508 8.27496C9.37508 8.27496 10.9151 7.77996 14.4167 10.145C15.8651 9.74163 17.4417 9.53996 19.0001 9.53996C20.5584 9.53996 22.1351 9.74163 23.5834 10.145C27.0851 7.77996 28.6251 8.27496 28.6251 8.27496C29.6334 10.75 28.9917 12.6566 28.8084 13.115C30.0001 14.4166 30.6967 16.0483 30.6967 18.0833C30.6967 25.0866 26.4067 26.6266 22.3184 27.085C22.9784 27.6533 23.5834 28.7716 23.5834 30.4766V35.5C23.5834 35.995 23.8767 36.5816 24.8117 36.4166C32.0901 33.96 37.3334 27.1033 37.3334 19C37.3334 16.5924 36.8592 14.2084 35.9379 11.9841C35.0165 9.75979 33.6661 7.73874 31.9637 6.03633C30.2613 4.33393 28.2402 2.9835 26.0159 2.06217C23.7916 1.14083 21.4076 0.666626 19.0001 0.666626Z" fill="white"/>
</svg>
