<svg width="38" height="37" viewBox="0 0 38 37" fill="none" xmlns="http://www.w3.org/2000/svg">
<path d="M19 0.666748C16.5924 0.666748 14.2084 1.14095 11.9841 2.06229C9.75982 2.98363 7.73877 4.33405 6.03637 6.03646C2.5982 9.47462 0.666656 14.1378 0.666656 19.0001C0.666656 27.1034 5.92832 33.9784 13.2067 36.4167C14.1233 36.5634 14.4167 35.9951 14.4167 35.5001V32.4017C9.33832 33.5017 8.25666 29.9451 8.25666 29.9451C7.41332 27.8184 6.22166 27.2501 6.22166 27.2501C4.55332 26.1134 6.34999 26.1501 6.34999 26.1501C8.18332 26.2784 9.15499 28.0384 9.15499 28.0384C10.75 30.8251 13.445 30.0001 14.49 29.5601C14.655 28.3684 15.1317 27.5617 15.645 27.1034C11.575 26.6451 7.30332 25.0684 7.30332 18.0834C7.30332 16.0484 7.99999 14.4167 9.19166 13.1151C9.00832 12.6567 8.36666 10.7501 9.37499 8.27508C9.37499 8.27508 10.915 7.78008 14.4167 10.1451C15.865 9.74175 17.4417 9.54008 19 9.54008C20.5583 9.54008 22.135 9.74175 23.5833 10.1451C27.085 7.78008 28.625 8.27508 28.625 8.27508C29.6333 10.7501 28.9917 12.6567 28.8083 13.1151C30 14.4167 30.6967 16.0484 30.6967 18.0834C30.6967 25.0867 26.4067 26.6267 22.3183 27.0851C22.9783 27.6534 23.5833 28.7717 23.5833 30.4767V35.5001C23.5833 35.9951 23.8767 36.5817 24.8117 36.4167C32.09 33.9601 37.3333 27.1034 37.3333 19.0001C37.3333 16.5925 36.8591 14.2085 35.9378 11.9842C35.0164 9.75992 33.666 7.73886 31.9636 6.03646C30.2612 4.33405 28.2402 2.98363 26.0159 2.06229C23.7916 1.14095 21.4076 0.666748 19 0.666748Z" fill="black"/>
</svg>
