<svg width="33" height="71" viewBox="0 0 33 71" fill="none" xmlns="http://www.w3.org/2000/svg">
<path d="M18.0695 70.9373L16.1686 70.307C16.1686 70.307 16.4217 60.6883 12.9412 60.0124C10.6631 57.3597 13.2779 -53.2382 21.6057 59.6353C20.0256 60.4367 18.8166 61.8181 18.2315 63.4904C17.9179 65.9602 17.8636 68.4561 18.0695 70.9373Z" fill="white"/>
<path d="M19.0971 61.6451C24.1585 57.835 28.0347 52.6666 30.2751 46.7408C32.5155 40.8149 33.0281 34.3749 31.7533 28.1693C28.0324 11.7541 19.2211 6.35751 18.2719 4.29707C17.4529 3.01406 16.7539 1.65833 16.1836 0.24707L16.8848 45.9842C16.8848 45.9842 15.4318 59.9618 19.0971 61.6451Z" fill="white"/>
<path d="M15.2015 62.2528C15.2015 62.2528 -0.292236 51.7 0.603827 33.032C0.687415 27.4042 1.9778 21.8598 4.38782 16.7734C6.79785 11.6869 10.2714 7.17695 14.5738 3.54803C15.0766 3.12087 15.476 2.58534 15.7422 1.98165C16.0083 1.37796 16.1341 0.72181 16.1103 0.0625C17.0747 2.13812 16.9177 31.0526 17.019 34.4343C17.4113 47.5893 16.2875 59.7696 15.2015 62.2528Z" fill="white"/>
</svg>
