<svg width="70" height="70" viewBox="0 0 70 70" fill="none" xmlns="http://www.w3.org/2000/svg">
<g clip-path="url(#clip0_16_448)">
<path d="M32.7102 0.0547085C32.5598 0.068379 32.0813 0.116226 31.6507 0.150402C21.7191 1.04582 12.4163 6.40467 6.52427 14.6412C3.24334 19.2208 1.14491 24.4156 0.35202 29.918C0.071774 31.8387 0.0375977 32.406 0.0375977 35.0103C0.0375977 37.6145 0.071774 38.1818 0.35202 40.1026C2.25223 53.2331 11.596 64.2652 24.2686 68.3527C26.5379 69.0841 28.9303 69.5831 31.6507 69.8838C32.7102 70 37.2898 70 38.3493 69.8838C43.0451 69.3643 47.0232 68.2023 50.9467 66.1996C51.5482 65.892 51.6644 65.81 51.5824 65.7417C51.5277 65.7006 48.9645 62.2625 45.8886 58.1067L40.2973 50.5537L33.2912 40.1846C29.4361 34.484 26.2645 29.8223 26.2372 29.8223C26.2098 29.8155 26.1825 34.4224 26.1688 40.0479C26.1483 49.8975 26.1415 50.2939 26.0185 50.5263C25.8407 50.8613 25.704 50.998 25.417 51.1483C25.1982 51.2577 25.0068 51.2782 23.9747 51.2782H22.7922L22.4778 51.08C22.2727 50.9501 22.1224 50.7792 22.0198 50.581L21.8763 50.2734L21.89 36.5687L21.9105 22.8572L22.1224 22.5906C22.2317 22.4471 22.4641 22.2625 22.6282 22.1736C22.9084 22.0369 23.0178 22.0233 24.2003 22.0233C25.5947 22.0233 25.8271 22.0779 26.1893 22.4744C26.2919 22.5838 30.0854 28.298 34.6241 35.1812C39.1627 42.0643 45.3691 51.4628 48.4176 56.0766L53.9542 64.4635L54.2345 64.2789C56.7157 62.6658 59.3404 60.3691 61.4183 57.9768C65.8407 52.8982 68.691 46.7054 69.648 40.1026C69.9282 38.1818 69.9624 37.6145 69.9624 35.0103C69.9624 32.406 69.9282 31.8387 69.648 29.918C67.7478 16.7874 58.404 5.75532 45.7314 1.66783C43.4962 0.943294 41.1176 0.444319 38.4518 0.143567C37.7956 0.0752143 33.2775 2.62968e-05 32.7102 0.0547085ZM47.0232 21.203C47.3513 21.3671 47.6179 21.6815 47.7136 22.0096C47.7683 22.1873 47.782 25.9877 47.7683 34.5523L47.7478 46.8421L45.581 43.5202L43.4074 40.1983V31.2646C43.4074 25.4887 43.4347 22.242 43.4757 22.0848C43.5851 21.702 43.8243 21.4013 44.1524 21.2235C44.4327 21.08 44.5352 21.0663 45.6083 21.0663C46.62 21.0663 46.7977 21.08 47.0232 21.203Z" fill="white"/>
<path d="M53.6125 64.6138C53.3733 64.7641 53.2981 64.8667 53.51 64.7505C53.6603 64.6616 53.9064 64.4771 53.8654 64.4702C53.8449 64.4702 53.7287 64.5386 53.6125 64.6138ZM53.1409 64.9213C53.0178 65.017 53.0178 65.0239 53.1682 64.9487C53.2502 64.9077 53.3186 64.8598 53.3186 64.8462C53.3186 64.7915 53.2844 64.8051 53.1409 64.9213ZM52.7991 65.1264C52.6761 65.2221 52.6761 65.2289 52.8264 65.1537C52.9085 65.1127 52.9768 65.0649 52.9768 65.0512C52.9768 64.9965 52.9426 65.0102 52.7991 65.1264ZM52.4573 65.3315C52.3343 65.4272 52.3343 65.434 52.4847 65.3588C52.5667 65.3178 52.6351 65.2699 52.6351 65.2563C52.6351 65.2016 52.6009 65.2153 52.4573 65.3315ZM51.9379 65.6049C51.6781 65.7416 51.6918 65.7963 51.9515 65.6664C52.0677 65.6049 52.1566 65.5434 52.1566 65.5297C52.1566 65.4818 52.1498 65.4887 51.9379 65.6049Z" fill="white"/>
</g>
<defs>
<clipPath id="clip0_16_448">
<rect width="70" height="70" fill="white"/>
</clipPath>
</defs>
</svg>
