<svg width="64" height="70" viewBox="0 0 64 70" fill="none" xmlns="http://www.w3.org/2000/svg">
<g clip-path="url(#clip0_16_451)">
<path d="M28.9194 0.888706C30.6475 -0.100478 32.8985 -0.104946 34.6251 0.888706C43.3118 5.79715 52.0013 10.6979 60.6865 15.6093C62.32 16.5295 63.4127 18.3475 63.3961 20.2298V49.7609C63.4083 51.7211 62.2076 53.5826 60.4842 54.4819C51.826 59.3633 43.1723 64.2506 34.5157 69.132C32.7518 70.1405 30.4557 70.0629 28.7469 68.9716C26.1511 67.4669 23.551 65.9696 20.955 64.4663C20.4246 64.1501 19.8266 63.8984 19.452 63.3841C19.7831 62.9378 20.3752 62.8821 20.8562 62.6873C21.9397 62.3428 22.9349 61.7897 23.9303 61.253C24.182 61.0808 24.4893 61.1468 24.7305 61.3009C26.9502 62.5736 29.1502 63.8833 31.3773 65.1437C31.8524 65.418 32.3335 65.0539 32.7396 64.8275C41.2359 60.0256 49.7426 55.2417 58.2375 50.4383C58.5522 50.2869 58.7262 49.9528 58.7007 49.608C58.7066 39.8663 58.7021 30.1229 58.7036 20.3812C58.7396 19.99 58.5132 19.6303 58.1595 19.4702C49.5314 14.6112 40.9077 9.7447 32.2811 4.88442C32.1317 4.78166 31.9546 4.72653 31.7732 4.72626C31.5918 4.726 31.4146 4.78061 31.2649 4.88293C22.6382 9.7447 14.0161 14.6157 5.38945 19.4745C5.03696 19.6348 4.8004 19.9885 4.84235 20.3812C4.84384 30.1229 4.84235 39.8663 4.84235 49.6095C4.8274 49.7777 4.86434 49.9465 4.94822 50.093C5.0321 50.2396 5.15889 50.357 5.3115 50.4293C7.61356 51.7348 9.9186 53.031 12.2221 54.332C13.5199 55.0305 15.1132 55.4455 16.543 54.9103C17.8048 54.4578 18.6892 53.1703 18.6651 51.8306C18.677 42.1458 18.6592 32.4595 18.6741 22.7761C18.6425 22.3462 19.0504 21.991 19.4684 22.0314C20.5745 22.024 21.6821 22.0165 22.7882 22.0344C23.2499 22.024 23.5676 22.4869 23.5105 22.9201C23.506 32.6662 23.5224 42.4126 23.5031 52.1587C23.506 54.7562 22.4389 57.5825 20.0363 58.8534C17.0765 60.3867 13.4181 60.0615 10.494 58.5913C7.96257 57.3278 5.54682 55.8367 3.06033 54.4831C1.33243 53.5888 0.137709 51.7199 0.149872 49.7611V20.2298C0.131751 18.3085 1.26789 16.4575 2.95235 15.5507C11.609 10.6654 20.2642 5.7763 28.9194 0.888706Z" fill="white"/>
<path d="M36.4713 21.345C40.2469 21.102 44.2888 21.2011 47.6862 23.061C50.3167 24.4863 51.775 27.4777 51.8214 30.4001C51.748 30.7943 51.3359 31.0117 50.9596 30.9847C49.8642 30.9832 48.7685 30.9996 47.6731 30.9772C47.2084 30.9951 46.9383 30.5667 46.88 30.1559C46.5652 28.7576 45.8027 27.3727 44.4866 26.6983C42.4663 25.6868 40.1238 25.7377 37.9207 25.7588C36.3125 25.8442 34.5831 25.9834 33.2206 26.9292C32.1745 27.6455 31.8568 29.0917 32.2301 30.2564C32.5821 31.0927 33.5475 31.3625 34.3373 31.6112C38.8873 32.8012 43.7089 32.6828 48.172 34.2489C50.0198 34.8873 51.8274 36.1284 52.4599 38.0631C53.2872 40.6561 52.9246 43.7555 51.0797 45.8371C49.5837 47.5501 47.4047 48.4824 45.2315 48.9888C42.3404 49.6335 39.3401 49.6499 36.4041 49.3637C33.6433 49.0489 30.7703 48.3236 28.639 46.4425C26.8166 44.8601 25.9264 42.3944 26.0148 40.0147C26.0359 39.6128 26.436 39.3326 26.821 39.3656C27.9241 39.3566 29.0273 39.3537 30.1304 39.3671C30.571 39.3355 30.8977 39.7163 30.9202 40.1316C31.1238 41.4638 31.6245 42.8621 32.7862 43.652C35.0281 45.0984 37.8413 44.9993 40.4085 45.0398C42.5353 44.9455 44.9227 44.9169 46.6583 43.5112C47.574 42.7094 47.8453 41.368 47.5979 40.214C47.3298 39.2397 46.3106 38.7857 45.4353 38.4888C40.9436 37.068 36.0682 37.5835 31.62 35.9768C29.8141 35.3386 28.0679 34.132 27.3741 32.2767C26.406 29.651 26.8496 26.4032 28.8878 24.3918C30.8751 22.3911 33.7438 21.6208 36.4713 21.345Z" fill="white"/>
</g>
<defs>
<clipPath id="clip0_16_451">
<rect width="63.56" height="70" fill="white"/>
</clipPath>
</defs>
</svg>
