<svg width="65" height="59" viewBox="0 0 65 59" fill="none" xmlns="http://www.w3.org/2000/svg">
<path d="M42.6649 26.5628L64.8813 13.6731L42.6649 0.888184L20.5532 13.8827L42.6649 26.5628Z" fill="white"/>
<path d="M22.3349 26.5628L44.3418 13.7779L22.3349 0.888184L0.0136719 13.7779L22.3349 26.5628Z" fill="white"/>
<path d="M54.5069 45.4257L32.5 58.3154L10.4932 45.4257V19.7511L32.5 6.86133L54.5069 19.7511V45.4257Z" fill="white"/>
<path d="M32.5 6.86133L54.5068 19.7511V45.4257L32.5 58.3154" fill="white"/>
<path d="M42.6652 13.9911L62.8802 25.7196L42.7676 37.2534L22.4572 25.7155L42.6652 13.9911Z" fill="white" stroke="black" stroke-width="2"/>
<path d="M22.3346 13.9899L42.4609 25.6269L22.3305 37.4571L2.01337 25.7247L22.3346 13.9899Z" fill="white" stroke="black" stroke-width="2"/>
<path fill-rule="evenodd" clip-rule="evenodd" d="M32.6154 32.6346L54.507 19.7511L32.6049 6.86133L10.2837 19.7511L32.5965 32.6359L32.6049 32.6409L32.6154 32.6346Z" fill="black"/>
<path d="M48.2192 46.893L53.459 43.854V42.1772L48.2192 45.2163V46.893Z" fill="black"/>
<path d="M48.2192 43.8539L53.459 40.8149V39.1382L48.2192 42.1772V43.8539Z" fill="black"/>
<path d="M48.2192 40.8147L53.459 37.7756V35.9941L48.2192 39.138V40.8147Z" fill="black"/>
</svg>
