<svg width="100" height="23" viewBox="0 0 100 23" fill="none" xmlns="http://www.w3.org/2000/svg">
<path d="M49.8868 5.68182C45.9819 5.68182 43.1664 8.23864 43.1664 12.0739C43.1664 15.9091 46.3356 18.4659 50.2405 18.4659C52.5997 18.4659 54.6795 17.5284 55.967 15.9482L53.2612 14.3786C52.5467 15.1634 51.4608 15.6214 50.2405 15.6214C48.5463 15.6214 47.1067 14.7337 46.5726 13.3132H56.4834C56.5613 12.9155 56.6072 12.5036 56.6072 12.0703C56.6072 8.23864 53.7917 5.68182 49.8868 5.68182ZM46.5407 10.831C46.9829 9.41406 48.1926 8.52273 49.8833 8.52273C51.5775 8.52273 52.7872 9.41406 53.2258 10.831H46.5407ZM87.974 5.68182C84.069 5.68182 81.2535 8.23864 81.2535 12.0739C81.2535 15.9091 84.4227 18.4659 88.3277 18.4659C90.6869 18.4659 92.7667 17.5284 94.0542 15.9482L91.3483 14.3786C90.6338 15.1634 89.548 15.6214 88.3277 15.6214C86.6334 15.6214 85.1938 14.7337 84.6597 13.3132H94.5706C94.6484 12.9155 94.6944 12.5036 94.6944 12.0703C94.6944 8.23864 91.8789 5.68182 87.974 5.68182ZM84.6314 10.831C85.0736 9.41406 86.2832 8.52273 87.974 8.52273C89.6682 8.52273 90.8779 9.41406 91.3165 10.831H84.6314ZM70.8263 12.0739C70.8263 14.2045 72.2128 15.625 74.3633 15.625C75.8206 15.625 76.9136 14.9609 77.4759 13.8778L80.1924 15.451C79.0676 17.3331 76.9595 18.4659 74.3633 18.4659C70.4549 18.4659 67.6429 15.9091 67.6429 12.0739C67.6429 8.23864 70.4584 5.68182 74.3633 5.68182C76.9595 5.68182 79.0641 6.81463 80.1924 8.69673L77.4759 10.2699C76.9136 9.18679 75.8206 8.52273 74.3633 8.52273C72.2163 8.52273 70.8263 9.94318 70.8263 12.0739ZM100 1.77557V18.1108H96.8166V1.77557H100ZM13.0695 0L26.1389 22.7273H0L13.0695 0ZM45.7449 1.77557L35.9437 18.821L26.1425 1.77557H29.8175L35.9437 12.429L42.0699 1.77557H45.7449ZM66.5818 6.03693V9.47798C66.2281 9.375 65.8531 9.30398 65.4499 9.30398C63.3949 9.30398 61.9128 10.7244 61.9128 12.8551V18.1108H58.7295V6.03693H61.9128V9.30398C61.9128 7.5 64.0033 6.03693 66.5818 6.03693Z" fill="white"/>
</svg>
