<svg width="38" height="38" viewBox="0 0 38 38" fill="none" xmlns="http://www.w3.org/2000/svg">
<path d="M26.9934 22.6666C27.1401 21.4566 27.2501 20.2466 27.2501 19C27.2501 17.7533 27.1401 16.5433 26.9934 15.3333H33.1901C33.4834 16.5066 33.6667 17.735 33.6667 19C33.6667 20.265 33.4834 21.4933 33.1901 22.6666M23.7484 32.86C24.8484 30.825 25.6917 28.625 26.2784 26.3333H31.6867C29.9106 29.3918 27.0926 31.7086 23.7484 32.86ZM23.2901 22.6666H14.7101C14.5267 21.4566 14.4167 20.2466 14.4167 19C14.4167 17.7533 14.5267 16.525 14.7101 15.3333H23.2901C23.4551 16.525 23.5834 17.7533 23.5834 19C23.5834 20.2466 23.4551 21.4566 23.2901 22.6666ZM19.0001 33.5933C17.4784 31.3933 16.2501 28.955 15.4984 26.3333H22.5017C21.7501 28.955 20.5217 31.3933 19.0001 33.5933ZM11.6667 11.6666H6.31341C8.07132 8.59985 10.8872 6.27935 14.2334 5.13996C13.1334 7.17496 12.3084 9.37496 11.6667 11.6666ZM6.31341 26.3333H11.6667C12.3084 28.625 13.1334 30.825 14.2334 32.86C10.8942 31.708 8.0823 29.3908 6.31341 26.3333ZM4.81008 22.6666C4.51675 21.4933 4.33341 20.265 4.33341 19C4.33341 17.735 4.51675 16.5066 4.81008 15.3333H11.0067C10.8601 16.5433 10.7501 17.7533 10.7501 19C10.7501 20.2466 10.8601 21.4566 11.0067 22.6666M19.0001 4.38829C20.5217 6.58829 21.7501 9.04496 22.5017 11.6666H15.4984C16.2501 9.04496 17.4784 6.58829 19.0001 4.38829ZM31.6867 11.6666H26.2784C25.7046 9.39597 24.855 7.2041 23.7484 5.13996C27.1217 6.29496 29.9267 8.62329 31.6867 11.6666ZM19.0001 0.666626C8.86175 0.666626 0.666748 8.91663 0.666748 19C0.666748 23.8623 2.59829 28.5254 6.03646 31.9636C7.73886 33.666 9.75992 35.0164 11.9842 35.9378C14.2085 36.8591 16.5925 37.3333 19.0001 37.3333C23.8624 37.3333 28.5255 35.4018 31.9637 31.9636C35.4019 28.5254 37.3334 23.8623 37.3334 19C37.3334 16.5924 36.8592 14.2084 35.9379 11.9841C35.0165 9.75979 33.6661 7.73874 31.9637 6.03633C30.2613 4.33393 28.2402 2.9835 26.0159 2.06217C23.7916 1.14083 21.4076 0.666626 19.0001 0.666626Z" fill="white"/>
</svg>
