<svg xmlns="http://www.w3.org/2000/svg" xmlns:xlink="http://www.w3.org/1999/xlink" viewBox="0 0 70.7 70.7"><defs><style>.cls-1{fill:#10192b;}.cls-2{fill:#38beb9;}.cls-3{fill:url(#linear-gradient);}.cls-4{fill:url(#linear-gradient-2);}.cls-5{fill:url(#linear-gradient-3);}.cls-6{fill:url(#linear-gradient-4);}.cls-7{fill:url(#linear-gradient-5);}.cls-8{fill:url(#linear-gradient-6);}.cls-9{opacity:0.7;fill:url(#radial-gradient);}.cls-10{fill:url(#linear-gradient-7);}.cls-11{opacity:0.5;fill:url(#linear-gradient-8);}.cls-12,.cls-13{opacity:0.8;}.cls-12{fill:url(#radial-gradient-2);}.cls-13{fill:url(#radial-gradient-3);}.cls-14{opacity:0.4;fill:url(#linear-gradient-9);}</style><linearGradient id="linear-gradient" x1="18.87" y1="41.36" x2="35.62" y2="59.09" gradientUnits="userSpaceOnUse"><stop offset="0" stop-color="#38beb9"/><stop offset="0.16" stop-color="#44cecf"/><stop offset="0.42" stop-color="#5dedfc"/><stop offset="0.7" stop-color="aqua"/><stop offset="0.72" stop-color="#08ffff"/><stop offset="0.76" stop-color="#1fffff"/><stop offset="0.82" stop-color="#4ff"/><stop offset="0.87" stop-color="#7ff"/><stop offset="0.94" stop-color="#b7ffff"/><stop offset="1" stop-color="#fff"/></linearGradient><linearGradient id="linear-gradient-2" x1="26.86" y1="52.96" x2="48.52" y2="40.55" gradientUnits="userSpaceOnUse"><stop offset="0" stop-color="#00dcfd"/><stop offset="0.13" stop-color="#12cefa"/><stop offset="0.39" stop-color="#42a8f3"/><stop offset="0.76" stop-color="#8d6de6"/><stop offset="1" stop-color="#c243de"/></linearGradient><linearGradient id="linear-gradient-3" x1="32.49" y1="38.43" x2="44.19" y2="38.43" gradientUnits="userSpaceOnUse"><stop offset="0.32" stop-color="#7a38d9"/><stop offset="0.5" stop-color="#6b32c1"/><stop offset="0.89" stop-color="#462184"/><stop offset="1" stop-color="#3a1c71"/></linearGradient><linearGradient id="linear-gradient-4" x1="36.3" y1="14.66" x2="32.96" y2="36.35" gradientUnits="userSpaceOnUse"><stop offset="0" stop-color="#00dcfd"/><stop offset="0.25" stop-color="#2db8f6"/><stop offset="0.82" stop-color="#9e60e4"/><stop offset="1" stop-color="#c243de"/></linearGradient><linearGradient id="linear-gradient-5" x1="52.26" y1="12.04" x2="28.76" y2="20.06" xlink:href="#linear-gradient"/><linearGradient id="linear-gradient-6" x1="27.97" y1="54.36" x2="45.41" y2="36.49" gradientUnits="userSpaceOnUse"><stop offset="0" stop-color="#10192b" stop-opacity="0.8"/><stop offset="0.09" stop-color="#4c5260" stop-opacity="0.6"/><stop offset="0.31" stop-color="#b1b4ba" stop-opacity="0.26"/><stop offset="0.58" stop-color="#edeeef" stop-opacity="0.06"/><stop offset="1" stop-color="#fff" stop-opacity="0"/></linearGradient><radialGradient id="radial-gradient" cx="31.11" cy="38.29" r="13.31" gradientUnits="userSpaceOnUse"><stop offset="0" stop-color="#fff" stop-opacity="0"/><stop offset="0.5" stop-color="#e9eaec" stop-opacity="0.05"/><stop offset="0.76" stop-color="#a0a3aa" stop-opacity="0.24"/><stop offset="0.98" stop-color="#222a3b" stop-opacity="0.56"/><stop offset="1" stop-color="#10192b" stop-opacity="0.6"/></radialGradient><linearGradient id="linear-gradient-7" x1="38.23" y1="16.68" x2="30.39" y2="36.69" gradientUnits="userSpaceOnUse"><stop offset="0" stop-color="#10192b" stop-opacity="0.8"/><stop offset="0.07" stop-color="#5d636f" stop-opacity="0.54"/><stop offset="0.2" stop-color="#b9bcc1" stop-opacity="0.23"/><stop offset="0.37" stop-color="#eff0f1" stop-opacity="0.05"/><stop offset="0.69" stop-color="#fff" stop-opacity="0"/></linearGradient><linearGradient id="linear-gradient-8" x1="26.19" y1="58.6" x2="31.11" y2="38.14" gradientUnits="userSpaceOnUse"><stop offset="0.1" stop-color="#fff" stop-opacity="0.7"/><stop offset="0.66" stop-color="#fff" stop-opacity="0"/></linearGradient><radialGradient id="radial-gradient-2" cx="34.54" cy="46.66" r="9.02" gradientUnits="userSpaceOnUse"><stop offset="0" stop-color="#fff"/><stop offset="0.05" stop-color="#fff" stop-opacity="0.98"/><stop offset="0.12" stop-color="#fff" stop-opacity="0.91"/><stop offset="0.2" stop-color="#fff" stop-opacity="0.81"/><stop offset="0.29" stop-color="#fff" stop-opacity="0.66"/><stop offset="0.38" stop-color="#fff" stop-opacity="0.47"/><stop offset="0.47" stop-color="#fff" stop-opacity="0.25"/><stop offset="0.56" stop-color="#fff" stop-opacity="0"/><stop offset="0.6" stop-color="#fff" stop-opacity="0.05"/><stop offset="0.67" stop-color="#fff" stop-opacity="0.18"/><stop offset="0.77" stop-color="#fff" stop-opacity="0.39"/><stop offset="0.88" stop-color="#fff" stop-opacity="0.68"/><stop offset="1" stop-color="#fff"/></radialGradient><radialGradient id="radial-gradient-3" cx="34.63" cy="26.09" r="10.53" xlink:href="#radial-gradient-2"/><linearGradient id="linear-gradient-9" x1="33.9" y1="37.89" x2="43.23" y2="39.25" gradientUnits="userSpaceOnUse"><stop offset="0.25" stop-color="#fff" stop-opacity="0"/><stop offset="0.32" stop-color="#fff" stop-opacity="0.05"/><stop offset="0.45" stop-color="#fff" stop-opacity="0.19"/><stop offset="0.62" stop-color="#fff" stop-opacity="0.41"/><stop offset="0.83" stop-color="#fff" stop-opacity="0.7"/></linearGradient></defs><g id="Layer_3" data-name="Layer 3"><path class="cls-1" d="M35.35,70.2A34.85,34.85,0,1,1,70.2,35.35,34.89,34.89,0,0,1,35.35,70.2Z"/><path class="cls-2" d="M35.35,1A34.35,34.35,0,1,1,1,35.35,34.39,34.39,0,0,1,35.35,1m0-1A35.35,35.35,0,1,0,70.7,35.35,35.35,35.35,0,0,0,35.35,0Z"/><path class="cls-3" d="M39.46,54.23l-.19.16a12.63,12.63,0,0,1-20.85-9.6V40.1a9.73,9.73,0,0,1,2.19.25c2.69.62,4.65,2.36,4.77,4.44h0c0,.17,0,.34,0,.51a9,9,0,0,0,0,.91,9.34,9.34,0,0,0,14.09,8Z"/><path class="cls-4" d="M43.69,37.78v7a12.61,12.61,0,0,1-4.23,9.44,9.34,9.34,0,0,1-14.09-8,9,9,0,0,1,0-.91,5.69,5.69,0,0,0,4.67,5.08h0a6,6,0,0,0,.95.08,5.64,5.64,0,0,0,.93-.08h0A12.63,12.63,0,0,0,43.69,37.78Z"/><path class="cls-5" d="M43.69,37.78A12.63,12.63,0,0,1,32,50.38a5.68,5.68,0,0,0,4.73-5.44V26.48A12.64,12.64,0,0,1,43.69,37.78Z"/><path class="cls-6" d="M43.85,21.37h-.16V37.78a12.64,12.64,0,0,0-7-11.3V21.37H32.14a6.86,6.86,0,0,1-6.75-7A27.84,27.84,0,0,1,43.85,21.37Z"/><path class="cls-7" d="M50.65,14.4h0a6.86,6.86,0,0,1-.79,3.23,7,7,0,0,1-6,3.73,27.84,27.84,0,0,0-18.46-7Z"/><path class="cls-8" d="M43.69,37.78v7a12.6,12.6,0,0,1-4.23,9.44,9.34,9.34,0,0,1-14.09-8,9,9,0,0,1,0-.91,6.94,6.94,0,0,0,.19,1,5.7,5.7,0,0,0,4.48,4.05h0a6,6,0,0,0,.95.08,5.64,5.64,0,0,0,.93-.08h0A12.63,12.63,0,0,0,43.69,37.78Z"/><path class="cls-9" d="M43.69,37.78A12.63,12.63,0,0,1,32,50.38a5.67,5.67,0,0,0,3.81-2.5h0a5.66,5.66,0,0,0,.91-2.93V26.48A12.64,12.64,0,0,1,43.69,37.78Z"/><path class="cls-10" d="M43.85,21.37h-.16V37.78a12.64,12.64,0,0,0-7-11.3V21.37H32.14a6.86,6.86,0,0,1-6.75-7A27.84,27.84,0,0,1,43.85,21.37Z"/><path class="cls-11" d="M39.46,54.23l-.19.16a12.63,12.63,0,0,1-20.85-9.6V40.1a9.73,9.73,0,0,1,2.19.25C19.32,49.84,27.35,61.87,39.46,54.23Z"/><path class="cls-12" d="M43.54,40.67v4.12a12.49,12.49,0,0,1-4.16,9.3,9.16,9.16,0,0,1-13.82-7.37,5.83,5.83,0,0,0,4.52,3.82,5.33,5.33,0,0,0,1,.08,5,5,0,0,0,.95-.08,12.84,12.84,0,0,0,11.53-9.87m.16-2.89A12.63,12.63,0,0,1,32,50.38h0a5.64,5.64,0,0,1-.93.08,6,6,0,0,1-.95-.08h0a5.69,5.69,0,0,1-4.67-5.08,9,9,0,0,0,0,.91,9.34,9.34,0,0,0,14.09,8,12.61,12.61,0,0,0,4.23-9.44v-7Z"/><path class="cls-13" d="M25.57,14.57a27.78,27.78,0,0,1,18,6.74V34.86a12.73,12.73,0,0,0-6.65-8.48V21.21H32.15a6.7,6.7,0,0,1-6.58-6.64m-.17-.17a6.86,6.86,0,0,0,6.75,7h4.58v5.11a12.64,12.64,0,0,1,7,11.3V21.37h.16a27.84,27.84,0,0,0-18.46-7Z"/><path class="cls-14" d="M35.77,47.88a5.52,5.52,0,0,0,.91-2.94V28.58l.1.11A13.59,13.59,0,0,1,35.77,47.88Z"/></g></svg>